<svg width="211" height="41" viewBox="0 0 211 41" fill="none" xmlns="http://www.w3.org/2000/svg">
<path d="M157.116 4.32605V8.47133H152.626C152.7 7.13892 152.552 5.58444 152.7 4.32605H157.116Z" fill="black"/>
<path d="M88.6145 3.80788C96.4909 3.2157 102.306 6.7688 104.735 11.3582C108.122 17.7982 106.944 26.977 102.969 31.7145C97.5215 38.2285 84.4186 38.4506 78.5297 32.6768C74.4074 28.6796 72.6408 21.4253 74.8491 14.2451C76.6894 8.3973 81.1061 4.40007 88.6145 3.80788ZM88.9089 9.95178C81.5478 10.8401 80.5172 24.7563 85.5964 29.1977C86.627 30.086 88.6881 30.8262 90.3811 30.8262C98.4784 30.8262 100.171 18.0943 96.1229 12.5426C94.8715 10.8401 92.1478 9.58167 89.277 9.95178C89.1298 9.95178 89.0561 9.95178 88.9089 9.95178Z" fill="black"/>
<path d="M72.4935 4.32605V10.0998H67.5616C67.5616 16.6138 67.5616 24.1642 67.5616 30.3821H72.4935C72.4935 32.3067 72.4935 34.3053 72.4935 36.2299H54.017C54.017 34.3053 54.017 32.3067 54.017 30.3821H59.0962C59.0962 23.9421 59.0962 16.8359 59.0962 10.0998H54.017C54.017 8.24926 54.017 5.95455 54.017 4.32605H72.4935Z" fill="black"/>
<path d="M124.874 24.2382H111.477V20.1669H124.874V24.2382Z" fill="black"/>
<path d="M40.5461 20.241C40.5461 31.2704 31.6391 40.2271 20.671 40.2271C9.70284 40.2271 0.722229 31.2704 0.722229 20.241C0.722229 9.21155 9.62923 0.254791 20.671 0.254791C31.6391 0.254791 40.5461 9.21155 40.5461 20.241Z" fill="black"/>
<path d="M14.6348 4.02995L4.47644 16.3177V20.1669L14.6348 12.3945L24.7932 20.1669V16.3177L14.6348 4.02995Z" fill="white"/>
<path d="M26.7807 36.674L36.9391 24.3862V20.6111L26.7807 28.3835L16.6223 20.6111V24.3862L26.7807 36.674Z" fill="white"/>
<path d="M189.726 2.9196H193.701V24.1642C197.603 20.463 201.43 16.1697 205.332 12.3205H210.117C210.19 12.6166 209.822 12.7646 209.601 12.9867C206.215 16.3918 202.682 20.0189 199.222 23.3499C203.05 27.7172 207.319 32.0106 211 36.2299H208.424H205.921C205.921 36.2299 203.933 34.0832 203.492 33.6391C201.136 31.0483 198.56 28.3094 196.351 25.7927C195.468 26.6069 194.585 27.4212 193.775 28.2354V36.2299H189.726C189.653 25.1264 189.579 13.875 189.726 2.9196Z" fill="black"/>
<path d="M130.616 4.32605H134.738V32.4547C139.891 32.6028 145.338 32.4547 150.565 32.5288V36.3039H130.469V4.54812C130.543 4.4741 130.543 4.32605 130.616 4.32605Z" fill="black"/>
<path d="M183.322 36.2299H179.347V26.4589C179.347 22.6097 179.789 17.8722 177.58 16.3177C176.55 15.5775 175.151 15.4295 173.753 15.5775C171.176 15.7996 169.041 17.3541 167.496 18.5384V36.3039H163.521V12.3205H167.496V14.8373C169.777 13.2828 172.133 11.4322 176.329 11.6543C181.114 11.9504 183.248 15.5035 183.322 20.389C183.396 25.2005 183.248 31.1223 183.322 36.2299Z" fill="black"/>
<path d="M153.141 12.3205H156.969V36.2299H153.068V12.5426C153.068 12.3945 153.068 12.3205 153.141 12.3205Z" fill="black"/>
</svg>
